<svg version="1.1" xmlns="http://www.w3.org/2000/svg" xmlns:xlink="http://www.w3.org/1999/xlink" width="20.62" height="20.61" viewBox="0,0,20.62,20.61"><g transform="translate(-309.69,-169.695)"><g data-paper-data="{&quot;isPaintingLayer&quot;:true}" fill-rule="nonzero" stroke-linecap="butt" stroke-linejoin="miter" stroke-miterlimit="10" stroke-dasharray="" stroke-dashoffset="0" style="mix-blend-mode: normal"><path d="M327.805,169.82c1.31054,-0.00001 2.37449,1.05947 2.38,2.37v15.61c0,1.31444 -1.06556,2.38 -2.38,2.38h-15.61c-1.31444,0 -2.38,-1.06556 -2.38,-2.38v-15.61c0.00551,-1.31053 1.06946,-2.37001 2.38,-2.37h15.61" fill="#9a1717" stroke="#074574" stroke-width="0.25"/><path d="M324.295,180.41l-2.16,2.1l0.51,3l-2.66,-1.4l-2.67,1.4l0.51,-3l-2.16,-2.1l3,-0.44l1.34,-2.7l1.19,2.43c-1.16,0.61 -2.18,1.15 -2.34,1.28c-0.39,0.31 -0.35,1.01 0.1,1.57c0.45,0.56 1.13,0.76 1.52,0.45c0.2,-0.16 1.34,-1.51 2.43,-2.8z" fill="#ffffff" stroke="none" stroke-width="1"/><path d="M320.415,182.46c-0.35556,0.18339 -0.79134,0.08704 -1.03645,-0.22915c-0.24511,-0.31619 -0.22978,-0.76223 0.03645,-1.06085c0.36,-0.28 5.31,-3.19 5.31,-3.19c0,0 -3.92,4.19 -4.28,4.48" fill="#ffffff" stroke="none" stroke-width="1"/><path d="M325.535,185.83c-0.10056,0.00073 -0.1987,-0.03082 -0.28,-0.09c-0.10794,-0.0728 -0.18168,-0.18632 -0.2043,-0.31453c-0.02263,-0.12821 0.0078,-0.26012 0.0843,-0.36547c0.74785,-1.05844 1.14641,-2.32404 1.14,-3.62c-0.13471,-3.37908 -2.91323,-6.04905 -6.295,-6.04905c-3.38177,0 -6.16029,2.66997 -6.295,6.04905c-0.0042,1.27557 0.38325,2.5217 1.11,3.57c0.15161,0.22373 0.09345,0.52797 -0.13,0.68c-0.10535,0.0765 -0.23725,0.10693 -0.36547,0.0843c-0.12821,-0.02263 -0.24174,-0.09636 -0.31453,-0.2043c-1.78084,-2.57824 -1.71212,-6.00676 0.17062,-8.51157c1.88274,-2.5048 5.15703,-3.52386 8.12869,-2.52988c2.97166,0.99398 4.97389,3.77796 4.97069,6.91144c0.00609,1.48446 -0.44808,2.93432 -1.3,4.15c-0.08741,0.13516 -0.23911,0.21481 -0.4,0.21" fill="#ffffff" stroke="none" stroke-width="1"/><path d="M314.255,182.04h-1c-0.27614,0 -0.5,-0.22386 -0.5,-0.5c0,-0.27614 0.22386,-0.5 0.5,-0.5h1c0.27614,0 0.5,0.22386 0.5,0.5c0,0.27614 -0.22386,0.5 -0.5,0.5" fill="#ffffff" stroke="none" stroke-width="1"/><path d="M315.875,178c-0.12721,-0.00076 -0.24914,-0.05097 -0.34,-0.14l-0.72,-0.71c-0.09406,-0.09216 -0.14707,-0.21831 -0.14707,-0.35c0,-0.13169 0.05301,-0.25784 0.14707,-0.35c0.19442,-0.19057 0.50558,-0.19057 0.7,0l0.72,0.71c0.14317,0.14024 0.18651,0.35352 0.10943,0.53851c-0.07708,0.18499 -0.25904,0.3044 -0.45943,0.30149" fill="#ffffff" stroke="none" stroke-width="1"/><path d="M319.965,176.28c-0.12903,0.00269 -0.2537,-0.04669 -0.34589,-0.137c-0.09219,-0.09031 -0.14413,-0.21394 -0.14411,-0.343v-1c-0.00268,-0.12996 0.04639,-0.25567 0.13642,-0.34944c0.09002,-0.09377 0.21362,-0.14793 0.34358,-0.15056v0c0.26839,0.00532 0.48468,0.22161 0.49,0.49v1c0.00545,0.13073 -0.0427,0.25802 -0.13332,0.35242c-0.09062,0.09439 -0.21584,0.1477 -0.34668,0.14758z" fill="#ffffff" stroke="none" stroke-width="1"/><path d="M324.025,178.07c-0.12564,0.00093 -0.24703,-0.04549 -0.34,-0.13c-0.09406,-0.09216 -0.14707,-0.21831 -0.14707,-0.35c0,-0.13169 0.05301,-0.25784 0.14707,-0.35l0.7,-0.73c0.09043,-0.09349 0.21493,-0.14627 0.345,-0.14627c0.13007,0 0.25457,0.05278 0.345,0.14627c0.18939,0.19101 0.18939,0.49899 0,0.69l-0.7,0.73c-0.09539,0.09572 -0.22487,0.14967 -0.36,0.15" fill="#ffffff" stroke="none" stroke-width="1"/><path d="M325.715,182.07c-0.27614,0 -0.5,-0.22386 -0.5,-0.5c0,-0.27614 0.22386,-0.5 0.5,-0.5h1c0.13167,-0.0054 0.25996,0.04245 0.35592,0.13277c0.09596,0.09032 0.1515,0.21548 0.15408,0.34723c0.00566,0.27238 -0.20778,0.49916 -0.48,0.51h-1v0" fill="#ffffff" stroke="none" stroke-width="1"/></g></g></svg>